<svg width="20" height="28" viewBox="0 0 20 28" fill="none" xmlns="http://www.w3.org/2000/svg">
<g clip-path="url(#clip0_105_781)">
<path d="M17.8305 27.9999C17.4673 27.9981 17.1104 27.9072 16.7929 27.7358C16.4755 27.5644 16.2076 27.3179 16.0141 27.0192L4.32896 9.31691V25.9208C4.29148 26.4539 4.04714 26.9533 3.64535 27.318C3.24355 27.6827 2.71428 27.8856 2.16449 27.8856C1.61469 27.8856 1.0854 27.6827 0.683601 27.318C0.281805 26.9533 0.0374624 26.4539 -1.15381e-05 25.9208V2.10853C-0.00405398 1.65201 0.145175 1.20665 0.425048 0.83999C0.704921 0.473332 1.10017 0.205363 1.55087 0.076723C2.00157 -0.0519169 2.48314 -0.0342325 2.92256 0.127125C3.36198 0.288482 3.73529 0.584687 3.98587 0.970842L15.671 18.7026V2.10853C15.6508 1.82019 15.6917 1.53084 15.7913 1.25853C15.8909 0.986209 16.047 0.736699 16.25 0.525489C16.453 0.314278 16.6985 0.145888 16.9712 0.030751C17.244 -0.0843855 17.5382 -0.143799 17.8355 -0.143799C18.1329 -0.143799 18.4271 -0.0843855 18.6998 0.030751C18.9726 0.145888 19.218 0.314278 19.421 0.525489C19.624 0.736699 19.7801 0.986209 19.8797 1.25853C19.9793 1.53084 20.0203 1.82019 20 2.10853V25.9011C19.9996 26.3557 19.8481 26.798 19.5681 27.1621C19.2881 27.5261 18.8945 27.7925 18.446 27.9214C18.2448 27.9716 18.0382 27.998 17.8305 27.9999Z" fill="#FF6B6B"/>
</g>
<defs>
<clipPath id="clip0_105_781">
<rect width="20" height="28" fill="white"/>
</clipPath>
</defs>
</svg>
