<svg xmlns="http://www.w3.org/2000/svg" xmlns:xlink="http://www.w3.org/1999/xlink" viewBox="0 0 16.99 21.51"><defs><style>.cls-1{fill:none;}.cls-2{clip-path:url(#clip-path);}.cls-3{fill:#ff6b6b;}</style><clipPath id="clip-path" transform="translate(0 0.11)"><rect class="cls-1" width="16.99" height="21.4"/></clipPath></defs><g id="레이어_2" data-name="레이어 2"><g id="레이어_1-2" data-name="레이어 1"><g class="cls-2"><path class="cls-3" d="M15.15,21.4a2.07,2.07,0,0,1-.89-.2,1.77,1.77,0,0,1-.66-.55L3.68,7.12V19.81a1.54,1.54,0,0,1-.58,1.07,2,2,0,0,1-1.26.43,2,2,0,0,1-1.26-.43A1.54,1.54,0,0,1,0,19.81V1.61a1.48,1.48,0,0,1,.36-1,1.85,1.85,0,0,1,1-.58A2,2,0,0,1,2.48.1a1.83,1.83,0,0,1,.91.64l9.92,13.55V1.61a1.46,1.46,0,0,1,.1-.65A1.67,1.67,0,0,1,13.8.4,2,2,0,0,1,14.42,0a2.11,2.11,0,0,1,1.46,0A2,2,0,0,1,16.5.4a1.67,1.67,0,0,1,.39.56,1.46,1.46,0,0,1,.1.65V19.8a1.48,1.48,0,0,1-.37,1,1.86,1.86,0,0,1-1,.58A2.31,2.31,0,0,1,15.15,21.4Z" transform="translate(0 0.11)"/></g></g></g></svg>