<svg width="29" height="28" viewBox="0 0 29 28" fill="none" xmlns="http://www.w3.org/2000/svg">
<g clip-path="url(#clip0_167_297)">
<path d="M24.9298 28H4.07018C2.99128 27.9982 1.9571 27.5751 1.1942 26.8235C0.431301 26.0719 0.00186824 25.053 0 23.99V4.0169C0.00186129 2.95332 0.43107 1.93373 1.19377 1.18101C1.95647 0.428294 2.99063 0.00367864 4.07018 0H24.9298C26.0094 0.00367864 27.0436 0.428294 27.8063 1.18101C28.569 1.93373 28.9981 2.95332 29 4.0169V23.99C28.9981 25.053 28.5687 26.0719 27.8058 26.8235C27.0429 27.5751 26.0087 27.9982 24.9298 28V28ZM4.07018 2.78468C3.90627 2.78468 3.74396 2.8166 3.59261 2.87861C3.44126 2.94062 3.30386 3.03149 3.18828 3.14601C3.0727 3.26052 2.98123 3.39643 2.91915 3.54589C2.85707 3.69535 2.82558 3.85541 2.82651 4.0169V23.99C2.82651 24.315 2.95755 24.6267 3.19078 24.8564C3.42401 25.0862 3.74034 25.2153 4.07018 25.2153H24.9298C25.2597 25.2153 25.576 25.0862 25.8092 24.8564C26.0425 24.6267 26.1735 24.315 26.1735 23.99V4.0169C26.1744 3.85541 26.1429 3.69535 26.0809 3.54589C26.0188 3.39643 25.9273 3.26052 25.8117 3.14601C25.6962 3.03149 25.5587 2.94062 25.4074 2.87861C25.256 2.8166 25.0937 2.78468 24.9298 2.78468H4.07018Z" fill="#20C997"/>
<path d="M27.3465 10.1084H1.65349C1.27867 10.1084 0.919203 9.96172 0.654166 9.70061C0.389129 9.43949 0.240234 9.08534 0.240234 8.71607C0.240234 8.3468 0.389129 7.99265 0.654166 7.73154C0.919203 7.47042 1.27867 7.32373 1.65349 7.32373H27.3465C27.7213 7.32373 28.0808 7.47042 28.3458 7.73154C28.6108 7.99265 28.7597 8.3468 28.7597 8.71607C28.7597 9.08534 28.6108 9.43949 28.3458 9.70061C28.0808 9.96172 27.7213 10.1084 27.3465 10.1084Z" fill="#20C997"/>
<path d="M5.80849 6.41175C6.51877 6.41175 7.09456 5.84448 7.09456 5.14472C7.09456 4.44495 6.51877 3.87769 5.80849 3.87769C5.09822 3.87769 4.52243 4.44495 4.52243 5.14472C4.52243 5.84448 5.09822 6.41175 5.80849 6.41175Z" fill="#20C997"/>
<path d="M10.9033 22.4308C10.5291 22.4292 10.1708 22.2815 9.90694 22.02L6.77656 18.9499C6.64516 18.8206 6.54093 18.6671 6.46981 18.498C6.39868 18.329 6.36209 18.1478 6.36209 17.9648C6.36209 17.7819 6.39868 17.6007 6.46981 17.4317C6.54093 17.2626 6.64516 17.1091 6.77656 16.9798L10.0059 13.7983C10.2743 13.5578 10.6262 13.4282 10.9889 13.4364C11.3516 13.4446 11.6973 13.5898 11.9542 13.8421C12.2112 14.0944 12.3599 14.4344 12.3694 14.7917C12.379 15.149 12.2487 15.4962 12.0056 15.7615L9.77268 17.9614L11.8926 20.0499C12.1558 20.3107 12.3035 20.6636 12.3035 21.0315C12.3035 21.3993 12.1558 21.7522 11.8926 22.0131C11.6316 22.2754 11.2761 22.4256 10.9033 22.4308V22.4308Z" fill="#20C997"/>
<path d="M17.7717 22.4307C17.5852 22.4308 17.4005 22.3946 17.2283 22.3241C17.0561 22.2536 16.8997 22.1502 16.7683 22.0199C16.505 21.759 16.3573 21.4062 16.3573 21.0383C16.3573 20.6705 16.505 20.3176 16.7683 20.0567L18.8881 17.9682L16.6552 15.7683C16.4121 15.503 16.2818 15.1558 16.2914 14.7985C16.301 14.4412 16.4496 14.1012 16.7066 13.8489C16.9636 13.5967 17.3092 13.4514 17.6719 13.4432C18.0346 13.4351 18.3865 13.5646 18.6549 13.8051L21.8842 16.9866C22.0156 17.1159 22.1199 17.2695 22.191 17.4385C22.2621 17.6075 22.2987 17.7887 22.2987 17.9717C22.2987 18.1547 22.2621 18.3358 22.191 18.5049C22.1199 18.6739 22.0156 18.8275 21.8842 18.9568L18.7539 22.0338C18.4913 22.2868 18.139 22.4292 17.7717 22.4307V22.4307Z" fill="#20C997"/>
</g>
<defs>
<clipPath id="clip0_167_297">
<rect width="29" height="28" fill="white"/>
</clipPath>
</defs>
</svg>
