<svg width="45" height="51" viewBox="0 0 45 51" fill="none" xmlns="http://www.w3.org/2000/svg">
<g clip-path="url(#clip0_176_321)">
<path d="M22.4924 51C18.0513 50.991 13.7126 49.691 10.0247 47.2644C6.3367 44.8377 3.46503 41.3932 1.77257 37.3663C0.0801076 33.3395 -0.357176 28.911 0.515994 24.6404C1.38916 20.3699 3.53361 16.449 6.67827 13.3734C9.82292 10.2979 13.8267 8.20557 18.1835 7.36099C22.5403 6.51642 27.0546 6.95746 31.1558 8.62841C35.2571 10.2994 38.7613 13.1252 41.2254 16.7488C43.6896 20.3724 45.0032 24.6311 45.0001 28.9866C44.9878 34.8317 42.6105 40.4331 38.3904 44.5606C34.1703 48.688 28.4523 51.0041 22.4924 51V51ZM22.4924 12.6095C19.1944 12.6305 15.9766 13.6088 13.2448 15.4211C10.513 17.2334 8.38953 19.7984 7.14225 22.7927C5.89497 25.787 5.57969 29.0765 6.23621 32.2463C6.89273 35.4161 8.49165 38.3243 10.8313 40.6041C13.1709 42.8838 16.1465 44.4331 19.3827 45.0564C22.619 45.6798 25.971 45.3493 29.016 44.1067C32.061 42.8641 34.6626 40.765 36.4927 38.0741C38.3229 35.3833 39.2996 32.2212 39.2996 28.9866C39.2956 26.8281 38.8573 24.6916 38.0099 22.6995C37.1625 20.7074 35.9226 18.8988 34.3613 17.3775C32.8 15.8561 30.9479 14.6519 28.9113 13.8337C26.8746 13.0155 24.6933 12.5995 22.4924 12.6095V12.6095Z" fill="black"/>
<path d="M25.1257 5.65148H19.8744C19.1102 5.65148 18.3773 5.35378 17.837 4.82386C17.2967 4.29393 16.9931 3.57515 16.9931 2.82571C16.9931 2.07628 17.2967 1.35755 17.837 0.827621C18.3773 0.297692 19.1102 0 19.8744 0H25.1257C25.8898 0 26.6227 0.297692 27.163 0.827621C27.7033 1.35755 28.0069 2.07628 28.0069 2.82571C28.0069 3.57515 27.7033 4.29393 27.163 4.82386C26.6227 5.35378 25.8898 5.65148 25.1257 5.65148V5.65148Z" fill="black"/>
<path d="M35.4114 15.9821C34.8775 15.9711 34.3574 15.8147 33.9089 15.5306C33.4604 15.2464 33.1013 14.8456 32.8715 14.3729C32.6418 13.9002 32.5504 13.3742 32.6078 12.8536C32.6651 12.333 32.8689 11.8382 33.1962 11.4245L36.093 8.02148C36.5935 7.49137 37.2822 7.16943 38.0173 7.12186C38.7524 7.07429 39.4781 7.30469 40.0454 7.7657C40.6126 8.22671 40.9783 8.88331 41.0671 9.60055C41.156 10.3178 40.9614 11.0412 40.5233 11.622L37.6265 15.0402C37.3481 15.3443 37.0061 15.5858 36.6238 15.7483C36.2415 15.9109 35.8279 15.9906 35.4114 15.9821V15.9821Z" fill="black"/>
<path d="M22.4922 31.0224C21.7293 31.0184 20.9988 30.7194 20.4594 30.1903C19.9199 29.6612 19.6151 28.9448 19.611 28.1966V20.3575C19.611 19.608 19.9146 18.8893 20.4549 18.3594C20.9952 17.8294 21.7281 17.5317 22.4922 17.5317C23.2564 17.5317 23.9892 17.8294 24.5296 18.3594C25.0699 18.8893 25.3735 19.608 25.3735 20.3575V28.1966C25.3735 28.946 25.0699 29.6648 24.5296 30.1947C23.9892 30.7246 23.2564 31.0224 22.4922 31.0224V31.0224Z" fill="black"/>
<path d="M22.4922 9.85977C21.7293 9.85578 20.9988 9.55681 20.4594 9.02774C19.9199 8.49868 19.6151 7.78226 19.611 7.03405V4.93753C19.611 4.1881 19.9146 3.46937 20.4549 2.93944C20.9952 2.40951 21.7281 2.11182 22.4922 2.11182C23.2564 2.11182 23.9892 2.40951 24.5296 2.93944C25.0699 3.46937 25.3735 4.1881 25.3735 4.93753V7.03405C25.3735 7.40514 25.299 7.77258 25.1542 8.11542C25.0094 8.45825 24.7971 8.76975 24.5296 9.03215C24.262 9.29454 23.9444 9.50269 23.5948 9.64469C23.2453 9.7867 22.8706 9.85977 22.4922 9.85977Z" fill="black"/>
<path d="M25.1257 5.65148H19.8744C19.1102 5.65148 18.3773 5.35378 17.837 4.82386C17.2967 4.29393 16.9931 3.57515 16.9931 2.82571C16.9931 2.07628 17.2967 1.35755 17.837 0.827621C18.3773 0.297692 19.1102 0 19.8744 0H25.1257C25.8898 0 26.6227 0.297692 27.163 0.827621C27.7033 1.35755 28.0069 2.07628 28.0069 2.82571C28.0069 3.57515 27.7033 4.29393 27.163 4.82386C26.6227 5.35378 25.8898 5.65148 25.1257 5.65148V5.65148Z" fill="black"/>
<path d="M35.4114 15.9821C34.8775 15.9711 34.3574 15.8147 33.9089 15.5306C33.4604 15.2464 33.1013 14.8456 32.8715 14.3729C32.6418 13.9002 32.5504 13.3742 32.6078 12.8536C32.6651 12.333 32.8689 11.8382 33.1962 11.4245L36.093 8.02148C36.5935 7.49137 37.2822 7.16943 38.0173 7.12186C38.7524 7.07429 39.4781 7.30469 40.0454 7.7657C40.6126 8.22671 40.9783 8.88331 41.0671 9.60055C41.156 10.3178 40.9614 11.0412 40.5233 11.622L37.6265 15.0402C37.3481 15.3443 37.0061 15.5858 36.6238 15.7483C36.2415 15.9109 35.8279 15.9906 35.4114 15.9821V15.9821Z" fill="black"/>
<path d="M22.4922 31.0224C21.7293 31.0184 20.9988 30.7194 20.4594 30.1903C19.9199 29.6612 19.6151 28.9448 19.611 28.1966V20.3575C19.611 19.608 19.9146 18.8893 20.4549 18.3594C20.9952 17.8294 21.7281 17.5317 22.4922 17.5317C23.2564 17.5317 23.9892 17.8294 24.5296 18.3594C25.0699 18.8893 25.3735 19.608 25.3735 20.3575V28.1966C25.3735 28.946 25.0699 29.6648 24.5296 30.1947C23.9892 30.7246 23.2564 31.0224 22.4922 31.0224V31.0224Z" fill="black"/>
<path d="M22.4922 9.85977C21.7293 9.85578 20.9988 9.55681 20.4594 9.02774C19.9199 8.49868 19.6151 7.78226 19.611 7.03405V4.93753C19.611 4.1881 19.9146 3.46937 20.4549 2.93944C20.9952 2.40951 21.7281 2.11182 22.4922 2.11182C23.2564 2.11182 23.9892 2.40951 24.5296 2.93944C25.0699 3.46937 25.3735 4.1881 25.3735 4.93753V7.03405C25.3735 7.40514 25.299 7.77258 25.1542 8.11542C25.0094 8.45825 24.7971 8.76975 24.5296 9.03215C24.262 9.29454 23.9444 9.50269 23.5948 9.64469C23.2453 9.7867 22.8706 9.85977 22.4922 9.85977Z" fill="black"/>
</g>
<defs>
<clipPath id="clip0_176_321">
<rect width="45" height="51" fill="white"/>
</clipPath>
</defs>
</svg>
