<svg width="29" height="28" viewBox="0 0 29 28" fill="none" xmlns="http://www.w3.org/2000/svg">
<g clip-path="url(#clip0_167_307)">
<path d="M14.12 27.9999C11.9322 27.9989 9.77464 27.4921 7.81805 26.5198C5.86146 25.5475 4.15953 24.1363 2.84686 22.3978C1.53419 20.6594 0.646809 18.6414 0.254943 16.5034C-0.136922 14.3655 -0.0225435 12.1663 0.58905 10.0799C1.20064 7.9935 2.29267 6.07707 3.77872 4.48223C5.26476 2.88738 7.10407 1.65792 9.15112 0.891056C11.1982 0.124196 13.3968 -0.159033 15.5731 0.0638445C17.7494 0.286722 19.8436 1.00959 21.69 2.17519C22.0778 2.43735 22.348 2.83885 22.4437 3.29503C22.5393 3.75121 22.4528 4.22645 22.2026 4.62057C21.9523 5.01469 21.5578 5.2969 21.1021 5.40771C20.6464 5.51852 20.1653 5.44926 19.76 5.21456C17.7985 3.97817 15.4787 3.42489 13.1658 3.6418C10.8529 3.85871 8.67836 4.83352 6.9845 6.41273C5.29063 7.99194 4.17369 10.0858 3.80948 12.3648C3.44527 14.6437 3.8545 16.9783 4.97275 19.0009C6.09099 21.0235 7.85472 22.6192 9.98627 23.5369C12.1178 24.4545 14.4961 24.642 16.7467 24.0697C18.9973 23.4974 20.9923 22.1979 22.4177 20.3758C23.843 18.5537 24.6178 16.3124 24.62 14.0049C24.6194 13.0998 24.5018 12.1985 24.27 11.3231C24.1553 10.8903 24.0116 10.4656 23.84 10.0517C23.72 9.76369 23.58 9.46571 23.43 9.1876C23.3033 8.97776 23.2211 8.74444 23.1884 8.50195C23.1557 8.25945 23.1731 8.01287 23.2397 7.77731C23.3062 7.54175 23.4205 7.3222 23.5755 7.13203C23.7305 6.94186 23.9229 6.78508 24.141 6.67135C24.3591 6.55762 24.5983 6.48935 24.8439 6.47063C25.0895 6.45191 25.3363 6.48319 25.5693 6.56253C25.8023 6.64188 26.0166 6.76758 26.199 6.93203C26.3814 7.09649 26.528 7.29622 26.63 7.51893C26.8367 7.89984 27.0237 8.29103 27.19 8.69097C27.4191 9.25121 27.6129 9.82508 27.77 10.4093C28.3235 12.485 28.389 14.6593 27.9615 16.7642C27.5341 18.8691 26.625 20.8483 25.3047 22.5485C23.9843 24.2488 22.288 25.6248 20.3469 26.57C18.4058 27.5153 16.2718 28.0045 14.11 27.9999H14.12Z" fill="#845EF7"/>
<path d="M14.3 18.564C13.8218 18.5645 13.3623 18.3791 13.02 18.0474L7.85999 12.9123C7.67477 12.7501 7.52495 12.5519 7.41971 12.33C7.31448 12.1081 7.25606 11.8672 7.24808 11.622C7.2401 11.3769 7.28272 11.1327 7.37329 10.9045C7.46387 10.6763 7.60051 10.469 7.77478 10.2952C7.94906 10.1214 8.15728 9.98483 8.38666 9.89397C8.61604 9.80311 8.86174 9.75987 9.10859 9.76684C9.35543 9.77381 9.59821 9.83087 9.82203 9.93453C10.0458 10.0382 10.246 10.1862 10.41 10.3696L15.58 15.5047C15.8347 15.7548 16.0084 16.0746 16.0791 16.4233C16.1498 16.772 16.1141 17.1338 15.9767 17.4622C15.8393 17.7907 15.6063 18.071 15.3076 18.2673C15.0089 18.4635 14.6581 18.5668 14.3 18.564V18.564Z" fill="#845EF7"/>
<path d="M14.3 18.5641C13.9406 18.5671 13.5887 18.4631 13.2893 18.2656C12.99 18.0681 12.757 17.7861 12.6204 17.456C12.4838 17.1259 12.4498 16.7626 12.5228 16.4132C12.5958 16.0637 12.7724 15.7439 13.03 15.4949L25.92 2.9203C26.0855 2.73846 26.2868 2.59216 26.5114 2.49042C26.736 2.38868 26.9791 2.33369 27.2259 2.32874C27.4727 2.32378 27.7179 2.36898 27.9464 2.46162C28.1749 2.55426 28.382 2.69233 28.5548 2.86738C28.7276 3.04243 28.8626 3.25074 28.9513 3.4795C29.0401 3.70826 29.0809 3.95267 29.071 4.19765C29.0612 4.44262 29.0011 4.68301 28.8943 4.90403C28.7875 5.12506 28.6363 5.32208 28.45 5.48293L15.62 18.0576C15.4452 18.2253 15.2383 18.3565 15.0116 18.4435C14.7849 18.5305 14.5429 18.5715 14.3 18.5641V18.5641Z" fill="#845EF7"/>
</g>
<defs>
<clipPath id="clip0_167_307">
<rect width="29" height="28" fill="white"/>
</clipPath>
</defs>
</svg>
