<svg xmlns="http://www.w3.org/2000/svg" viewBox="0 0 1244.29 145.19"><defs><style>.cls-1,.cls-4{fill:#fff;}.cls-1{stroke:#c8b4fe;stroke-width:3px;}.cls-1,.cls-2{fill-rule:evenodd;}.cls-2{fill:#9775fa;}.cls-3,.cls-4,.cls-5{isolation:isolate;}.cls-4{font-size:66.67px;}.cls-4,.cls-5{font-family:Poppins-Bold, Poppins;font-weight:700;}.cls-5{font-size:50px;fill:#e7eaec;}</style></defs><g id="레이어_2" data-name="레이어 2"><g id="레이어_1-2" data-name="레이어 1"><path class="cls-1" d="M70.5,3.9H862.63a68.57,68.57,0,0,1,69,69v0a69,69,0,0,1-69,69H70.5a68.56,68.56,0,0,1-69-69v0C1.5,34.1,31.7,3.9,70.5,3.9Z"/><path class="cls-2" d="M1000.18,0h175.11a68.5,68.5,0,0,1,69,69v7.19c0,39-30.89,69-69,69H1000.18c-38.1,0-69-30-69-69V69A68.5,68.5,0,0,1,1000.18,0Z"/><g class="cls-3"><text class="cls-4" transform="translate(1022.87 97.1)">add</text></g><g class="cls-3"><text class="cls-5" transform="translate(68.73 91.52)">Todolist</text></g></g></g></svg>